<svg width="170" height="157" viewBox="0 0 170 157" fill="none" xmlns="http://www.w3.org/2000/svg">
<path d="M39.144 108.653L52.306 83.7751L22.8293 61.2463L7.60681 90.019L31.9877 108.653H39.144Z" fill="#F0F0F0"/>
<path d="M57.7958 116.414H25.1931V108.526H57.7958V116.414ZM25.6165 115.905H57.3724V109.035H25.6165V115.905Z" fill="#3F3D56"/>
<path d="M53.7734 115.015C54.9426 115.015 55.8904 113.875 55.8904 112.47C55.8904 111.065 54.9426 109.925 53.7734 109.925C52.6042 109.925 51.6563 111.065 51.6563 112.47C51.6563 113.875 52.6042 115.015 53.7734 115.015Z" fill="#7B5E2B"/>
<path d="M47.8456 115.015C49.0148 115.015 49.9626 113.875 49.9626 112.47C49.9626 111.065 49.0148 109.925 47.8456 109.925C46.6764 109.925 45.7285 111.065 45.7285 112.47C45.7285 113.875 46.6764 115.015 47.8456 115.015Z" fill="#7B5E2B"/>
<path d="M41.9178 115.015C43.087 115.015 44.0348 113.875 44.0348 112.47C44.0348 111.065 43.087 109.925 41.9178 109.925C40.7486 109.925 39.8007 111.065 39.8007 112.47C39.8007 113.875 40.7486 115.015 41.9178 115.015Z" fill="#7B5E2B"/>
<path d="M35.99 115.015C37.1593 115.015 38.1071 113.875 38.1071 112.47C38.1071 111.065 37.1593 109.925 35.99 109.925C34.8208 109.925 33.873 111.065 33.873 112.47C33.873 113.875 34.8208 115.015 35.99 115.015Z" fill="#7B5E2B"/>
<path d="M30.0623 115.015C31.2315 115.015 32.1793 113.875 32.1793 112.47C32.1793 111.065 31.2315 109.925 30.0623 109.925C28.893 109.925 27.9452 111.065 27.9452 112.47C27.9452 113.875 28.893 115.015 30.0623 115.015Z" fill="#7B5E2B"/>
<path d="M96.538 28.7537V9.41491H104.583V0H65.2055V47.329H98.8668V42.7016C98.8668 41.839 99.0081 40.9848 99.2828 40.1878C99.5574 39.3909 99.96 38.6668 100.467 38.0568C100.975 37.4469 101.577 36.963 102.24 36.6329C102.903 36.3028 103.614 36.1329 104.332 36.1329H104.583V28.7537H96.538Z" fill="#F0F0F0"/>
<path d="M140.149 122.139H113.898V128.755H140.149V122.139Z" fill="#7B5E2B"/>
<path d="M145.866 89.5688H107.335V95.6758H145.866V89.5688Z" fill="#F0F0F0"/>
<path d="M164.707 156.491H0V157H164.707V156.491Z" fill="#3F3D56"/>
<path d="M152.468 157H104.332C102.827 156.998 101.384 156.278 100.32 154.999C99.2554 153.72 98.6568 151.986 98.655 150.177V42.7015C98.6567 40.8926 99.2554 39.1583 100.32 37.8791C101.384 36.6 102.827 35.8805 104.332 35.8784H152.468C153.973 35.8805 155.416 36.6 156.48 37.8791C157.544 39.1583 158.143 40.8926 158.144 42.7015V150.177C158.143 151.986 157.544 153.72 156.48 154.999C155.416 156.278 153.973 156.998 152.468 157ZM104.332 36.3873C102.939 36.3892 101.604 37.0551 100.619 38.2388C99.634 39.4226 99.08 41.0275 99.0784 42.7015V150.177C99.08 151.851 99.634 153.456 100.619 154.64C101.604 155.823 102.939 156.489 104.332 156.491H152.468C153.86 156.489 155.196 155.823 156.181 154.64C157.165 153.456 157.719 151.851 157.721 150.177V42.7015C157.719 41.0275 157.165 39.4226 156.181 38.2388C155.196 37.0551 153.86 36.3892 152.468 36.3873H104.332Z" fill="#3F3D56"/>
<path d="M122.684 40.9676C122.432 40.9676 122.187 40.8781 121.978 40.7103C121.769 40.5425 121.606 40.3041 121.51 40.0251C121.414 39.7461 121.389 39.4392 121.438 39.143C121.487 38.8469 121.608 38.5748 121.786 38.3613C121.963 38.1478 122.189 38.0024 122.436 37.9435C122.682 37.8846 122.938 37.9148 123.17 38.0303C123.402 38.1459 123.6 38.3416 123.74 38.5926C123.879 38.8437 123.954 39.1389 123.954 39.4409C123.954 39.8456 123.82 40.2337 123.581 40.5199C123.343 40.8062 123.02 40.9672 122.684 40.9676ZM122.684 38.423C122.516 38.423 122.352 38.4827 122.213 38.5946C122.074 38.7064 121.965 38.8654 121.901 39.0514C121.837 39.2373 121.82 39.442 121.853 39.6394C121.886 39.8369 121.966 40.0182 122.085 40.1606C122.203 40.3029 122.354 40.3999 122.518 40.4391C122.683 40.4784 122.853 40.4582 123.008 40.3812C123.162 40.3042 123.295 40.1737 123.388 40.0063C123.481 39.839 123.531 39.6422 123.531 39.4409C123.53 39.171 123.441 38.9123 123.282 38.7215C123.123 38.5307 122.908 38.4233 122.684 38.423Z" fill="#3F3D56"/>
<path d="M135.174 39.1864H125.859V39.6953H135.174V39.1864Z" fill="#3F3D56"/>
<path d="M154.334 43.2577V63.6143C149.842 63.614 145.534 61.4692 142.358 57.6517C139.182 53.8341 137.397 48.6565 137.397 43.2577H154.334Z" fill="#7B5E2B"/>
<path d="M154.545 150.13H102.254V43.0032H154.545V150.13ZM102.678 149.621H154.122V43.5121H102.678V149.621Z" fill="#3F3D56"/>
<path opacity="0.1" d="M142.055 62.342C145.212 62.342 147.771 59.266 147.771 55.4717C147.771 51.6773 145.212 48.6013 142.055 48.6013C138.898 48.6013 136.339 51.6773 136.339 55.4717C136.339 59.266 138.898 62.342 142.055 62.342Z" fill="black"/>
<path d="M141.208 63.1054C144.365 63.1054 146.924 60.0294 146.924 56.235C146.924 52.4406 144.365 49.3647 141.208 49.3647C138.051 49.3647 135.492 52.4406 135.492 56.235C135.492 60.0294 138.051 63.1054 141.208 63.1054Z" fill="#7B5E2B"/>
<path d="M112.628 47.329H104.583V50.8914H112.628V47.329Z" fill="#3F3D56"/>
<path d="M117.073 81.1718H109.029V84.7342H117.073V81.1718Z" fill="#3F3D56"/>
<path d="M147.983 94.4035H109.029V87.7877H147.983V94.4035ZM109.452 93.8946H147.559V88.2966H109.452V93.8946Z" fill="#3F3D56"/>
<path d="M145.866 108.908H107.335V115.015H145.866V108.908Z" fill="#F0F0F0"/>
<path d="M117.073 100.511H109.029V104.073H117.073V100.511Z" fill="#3F3D56"/>
<path d="M147.983 113.742H109.029V107.126H147.983V113.742ZM109.452 113.233H147.559V107.635H109.452V113.233Z" fill="#3F3D56"/>
<path d="M141.843 127.228H115.168V120.104H141.843V127.228ZM115.592 126.72H141.42V120.613H115.592V126.72Z" fill="#3F3D56"/>
<path d="M146.924 91.859C146.924 92.3829 146.789 92.8939 146.539 93.3225C146.288 93.751 145.933 94.0761 145.523 94.2534C145.113 94.4307 144.668 94.4515 144.247 94.3131C143.827 94.1747 143.452 93.8837 143.175 93.4799L143.173 93.4774C142.97 93.1823 142.826 92.8362 142.75 92.4648C142.674 92.0934 142.669 91.7063 142.735 91.3322C142.801 90.958 142.936 90.6066 143.13 90.3039C143.325 90.0012 143.574 89.7551 143.858 89.5839C144.142 89.4126 144.455 89.3206 144.773 89.3148C145.092 89.3089 145.407 89.3893 145.695 89.5499C145.984 89.7106 146.239 89.9474 146.441 90.2428C146.643 90.5381 146.787 90.8844 146.863 91.2559C146.863 91.2563 146.863 91.2566 146.863 91.2569C146.863 91.2572 146.863 91.2575 146.863 91.2578C146.863 91.258 146.864 91.2582 146.864 91.2583C146.864 91.2584 146.864 91.2585 146.865 91.2585C146.904 91.4552 146.924 91.6567 146.924 91.859Z" fill="#7B5E2B"/>
<path opacity="0.1" d="M146.924 91.859C146.924 92.3829 146.789 92.8939 146.539 93.3225C146.288 93.751 145.933 94.0761 145.523 94.2534C145.113 94.4307 144.668 94.4516 144.247 94.3131C143.827 94.1747 143.452 93.8837 143.175 93.4799L143.173 93.4774C143.134 93.2806 143.114 93.0791 143.113 92.8768C143.113 92.353 143.248 91.8419 143.499 91.4134C143.749 90.9849 144.104 90.6598 144.514 90.4825C144.924 90.3052 145.37 90.2843 145.79 90.4227C146.21 90.5612 146.585 90.8522 146.863 91.256C146.863 91.2563 146.863 91.2566 146.863 91.2569C146.863 91.2572 146.863 91.2575 146.863 91.2578C146.863 91.258 146.864 91.2582 146.864 91.2583C146.864 91.2584 146.864 91.2585 146.865 91.2585C146.904 91.4552 146.924 91.6568 146.924 91.859Z" fill="black"/>
<path d="M145.654 95.9303C146.823 95.9303 147.771 94.7911 147.771 93.3857C147.771 91.9804 146.823 90.8411 145.654 90.8411C144.485 90.8411 143.537 91.9804 143.537 93.3857C143.537 94.7911 144.485 95.9303 145.654 95.9303Z" fill="#7B5E2B"/>
<path d="M146.924 111.198C146.924 111.722 146.789 112.233 146.539 112.661C146.288 113.09 145.933 113.415 145.523 113.592C145.113 113.769 144.668 113.79 144.247 113.652C143.827 113.513 143.452 113.222 143.175 112.819L143.173 112.816C142.97 112.521 142.826 112.175 142.75 111.804C142.674 111.432 142.669 111.045 142.735 110.671C142.801 110.297 142.936 109.945 143.13 109.643C143.325 109.34 143.574 109.094 143.858 108.923C144.142 108.751 144.455 108.659 144.773 108.653C145.092 108.648 145.407 108.728 145.695 108.889C145.984 109.049 146.239 109.286 146.441 109.582C146.643 109.877 146.787 110.223 146.863 110.595C146.863 110.595 146.863 110.595 146.863 110.596C146.863 110.596 146.863 110.596 146.863 110.597C146.863 110.597 146.864 110.597 146.864 110.597C146.864 110.597 146.864 110.597 146.865 110.597C146.904 110.794 146.924 110.995 146.924 111.198Z" fill="#7B5E2B"/>
<path opacity="0.1" d="M146.924 111.198C146.924 111.722 146.789 112.233 146.539 112.661C146.288 113.09 145.933 113.415 145.523 113.592C145.113 113.769 144.668 113.79 144.247 113.652C143.827 113.513 143.452 113.222 143.175 112.819L143.173 112.816C143.134 112.619 143.114 112.418 143.113 112.216C143.113 111.692 143.248 111.181 143.499 110.752C143.749 110.324 144.104 109.999 144.514 109.821C144.924 109.644 145.37 109.623 145.79 109.761C146.21 109.9 146.585 110.191 146.863 110.595C146.863 110.595 146.863 110.595 146.863 110.596C146.863 110.596 146.863 110.596 146.863 110.597C146.863 110.597 146.864 110.597 146.864 110.597C146.864 110.597 146.864 110.597 146.865 110.597C146.904 110.794 146.924 110.995 146.924 111.198Z" fill="black"/>
<path d="M145.654 115.269C146.823 115.269 147.771 114.13 147.771 112.725C147.771 111.319 146.823 110.18 145.654 110.18C144.485 110.18 143.537 111.319 143.537 112.725C143.537 114.13 144.485 115.269 145.654 115.269Z" fill="#7B5E2B"/>
<path d="M110.087 12.214H99.0785V25.4458H110.087V12.214Z" fill="#F0F0F0"/>
<path d="M142.055 21.8833C141.552 21.8833 141.061 21.7043 140.643 21.3687C140.226 21.0332 139.9 20.5563 139.708 19.9984C139.515 19.4404 139.465 18.8265 139.563 18.2341C139.661 17.6418 139.903 17.0978 140.258 16.6707C140.614 16.2437 141.066 15.9529 141.559 15.835C142.052 15.7172 142.563 15.7777 143.027 16.0088C143.491 16.2399 143.888 16.6313 144.167 17.1334C144.446 17.6356 144.595 18.2259 144.595 18.8299C144.594 19.6394 144.327 20.4155 143.85 20.988C143.374 21.5604 142.728 21.8824 142.055 21.8833ZM142.055 16.2853C141.636 16.2853 141.227 16.4345 140.879 16.7141C140.53 16.9937 140.259 17.3911 140.099 17.8561C139.939 18.321 139.897 18.8327 139.978 19.3263C140.06 19.8199 140.262 20.2733 140.558 20.6291C140.854 20.985 141.231 21.2273 141.642 21.3255C142.052 21.4237 142.478 21.3733 142.865 21.1807C143.252 20.9881 143.582 20.662 143.815 20.2435C144.048 19.8251 144.172 19.3331 144.172 18.8299C144.171 18.1552 143.948 17.5085 143.551 17.0314C143.154 16.5544 142.616 16.2861 142.055 16.2853Z" fill="#3F3D56"/>
<path d="M86.1644 64.3776H80.66V57.7617H86.1644V64.3776ZM81.0834 63.8687H85.741V58.2706H81.0834V63.8687Z" fill="#3F3D56"/>
<path d="M170 113.742H164.496V107.126H170V113.742ZM164.919 113.233H169.577V107.635H164.919V113.233Z" fill="#3F3D56"/>
<path d="M61.3953 69.3819L62.3399 69.9934L65.5541 72.0755L70.743 75.4358L73.767 68.6923C74.0518 68.0587 74.2298 67.3638 74.2909 66.6473C74.352 65.9309 74.295 65.2071 74.123 64.5172C73.9511 63.8273 73.6676 63.1849 73.2889 62.6269C72.9102 62.0688 72.4436 61.606 71.9159 61.2649C70.7881 60.533 69.4961 60.2502 68.2261 60.4573C66.9561 60.6644 65.7735 61.3507 64.8488 62.4174L64.8472 62.4193C64.3923 62.9445 64.0083 63.5519 63.7093 64.2195L61.3953 69.3819Z" fill="#2F2E41"/>
<path d="M75.5579 138.154L74.9241 146.536L72.5466 146.917L70.9618 137.392L75.5579 138.154Z" fill="#FFB8B8"/>
<path d="M71.9127 146.917C71.9127 146.917 74.924 145.012 75.558 146.536C75.558 146.536 75.0825 151.108 76.9844 151.679C78.8863 152.251 79.6787 156.251 76.9844 156.632C74.2901 157.013 72.5467 155.87 71.5957 155.87C70.6448 155.87 71.5957 151.87 71.5957 151.87L71.9127 146.917Z" fill="#2F2E41"/>
<path d="M56.3807 138.154L57.0148 146.536L59.392 146.917L60.9769 137.392L56.3807 138.154Z" fill="#FFB8B8"/>
<path d="M60.026 146.917C60.026 146.917 57.0147 145.012 56.3807 146.536C56.3807 146.536 56.8562 151.108 54.9543 151.679C53.0525 152.251 52.26 156.251 54.9543 156.632C57.6487 157.013 59.392 155.87 60.343 155.87C61.2939 155.87 60.343 151.87 60.343 151.87L60.026 146.917Z" fill="#2F2E41"/>
<path d="M69.3768 70.9097C71.6526 70.9097 73.4976 68.6922 73.4976 65.9568C73.4976 63.2214 71.6526 61.004 69.3768 61.004C67.101 61.004 65.2561 63.2214 65.2561 65.9568C65.2561 68.6922 67.101 70.9097 69.3768 70.9097Z" fill="#FFB8B8"/>
<path d="M56.2222 75.672L59.5505 81.9584L63.5127 81.5774L70.0108 82.1489C70.0108 82.1489 70.6242 80.6744 71.125 79.24C71.3992 78.5237 71.6101 77.7748 71.7542 77.0055C71.9127 75.6721 69.6938 74.3386 69.6938 74.3386C69.6938 74.3386 69.6066 74.3195 69.4608 74.2776C69.2675 74.2224 68.9695 74.131 68.643 73.9976C67.9061 73.6966 67.0201 73.1861 66.841 72.4337C66.524 71.1002 68.9014 69.1953 68.9014 69.1953L66.0486 65.9568C66.0486 65.9568 63.5143 70.1877 60.4365 71.1516C60.258 71.2083 60.077 71.2528 59.8944 71.285C59.8849 71.2869 59.877 71.2888 59.8675 71.2907C56.5392 71.8622 56.2222 75.672 56.2222 75.672Z" fill="#FFB8B8"/>
<path d="M57.9656 73.9576L56.2222 75.672C56.2222 75.672 54.7958 83.8633 55.2713 86.1492C55.7468 88.4351 55.1128 90.5306 55.1128 90.9115C55.1128 91.2925 53.6864 105.58 53.6864 105.58C53.6864 105.58 50.8336 113.199 53.8449 112.437C56.8562 111.675 55.7468 104.056 55.7468 104.056L59.392 90.7211V79.4819L57.9656 73.9576Z" fill="#FFB8B8"/>
<path d="M70.4863 75.4815L71.7542 76.6245L72.3881 92.626L77.1428 106.342C77.1428 106.342 80.6296 113.009 78.4107 113.199C76.1918 113.39 74.7655 106.342 74.7655 106.342L70.4863 93.1975L69.8523 80.4344L70.4863 75.4815Z" fill="#FFB8B8"/>
<path d="M62.5618 76.6245C62.5618 76.6245 65.7316 79.2914 70.8032 78.339C70.8032 78.339 72.2296 81.7678 71.4372 83.6728C70.6447 85.5777 72.3881 90.1496 72.7051 90.7211C73.0221 91.2925 76.6673 103.103 77.9353 115.866C79.2032 128.629 82.6899 137.392 79.6786 138.535C76.6673 139.678 70.4863 141.011 69.8523 139.868C69.2183 138.726 68.2674 110.342 68.2674 110.342L66.524 121.2C66.524 121.2 68.9014 139.678 67.158 140.059C65.4146 140.44 54.4788 139.297 54.7958 137.011C55.1128 134.725 58.2826 122.724 58.2826 122.724C58.2826 122.724 58.1241 98.7218 61.2939 94.1499C61.2939 94.1499 62.5618 91.6735 60.8184 88.4351C59.075 85.1967 59.2335 80.0534 59.2335 80.0534C59.2335 80.0534 60.5014 80.0534 62.5618 76.6245Z" fill="#2F2E41"/>
<path d="M59.8944 71.2849L62.5619 78.3389L63.1958 77.958L60.4364 71.1516L59.8944 71.2849Z" fill="#2F2E41"/>
<path d="M68.6431 73.9976L70.6448 79.2914L71.125 79.24L70.9618 78.3389L69.4609 74.2776C69.2675 74.2223 68.9695 74.1309 68.6431 73.9976Z" fill="#2F2E41"/>
<path d="M62.3399 69.9934C62.4923 70.5827 62.786 71.1048 63.1842 71.4944C63.5824 71.884 64.0674 72.1237 64.5784 72.1835C65.0894 72.2433 65.6037 72.1205 66.057 71.8306C66.5102 71.5406 66.8822 71.0964 67.1263 70.5534C65.1214 67.4027 66.841 65.4235 70.098 63.9262C70.3433 63.3789 70.4476 62.7563 70.3977 62.1375C70.3477 61.5188 70.1457 60.9319 69.8174 60.4516C68.9197 60.3136 68.0077 60.4185 67.148 60.7586C66.2883 61.0987 65.5028 61.6655 64.8488 62.4175L64.8472 62.4194L62.5333 67.5779C62.3685 67.9446 62.2665 68.3473 62.2333 68.7621C62.2 69.177 62.2363 69.5957 62.3399 69.9934Z" fill="#2F2E41"/>
<path d="M66.9202 67.6712C67.2266 67.6712 67.475 67.1595 67.475 66.5283C67.475 65.897 67.2266 65.3853 66.9202 65.3853C66.6139 65.3853 66.3655 65.897 66.3655 66.5283C66.3655 67.1595 66.6139 67.6712 66.9202 67.6712Z" fill="#FFB8B8"/>
<path d="M68.5733 64.6634L73.3375 67.2579L74.2108 64.9415C74.0603 64.0949 73.7453 63.3031 73.2915 62.6308L70.0124 60.8459L68.5733 64.6634Z" fill="#2F2E41"/>
<path d="M80.0249 115.778C81.1941 115.778 82.142 114.639 82.142 113.233C82.142 111.828 81.1941 110.689 80.0249 110.689C78.8557 110.689 77.9078 111.828 77.9078 113.233C77.9078 114.639 78.8557 115.778 80.0249 115.778Z" fill="#7B5E2B"/>
<path d="M12.058 130.905C12.8221 130.905 13.4416 130.16 13.4416 129.242C13.4416 128.323 12.8221 127.579 12.058 127.579C11.2939 127.579 10.6744 128.323 10.6744 129.242C10.6744 130.16 11.2939 130.905 12.058 130.905Z" fill="#FF6584"/>
<path d="M19.0483 137.909H18.6249V156.843H19.0483V137.909Z" fill="#3F3D56"/>
<path d="M18.8366 140.586C20.067 140.586 21.0644 139.387 21.0644 137.909C21.0644 136.43 20.067 135.231 18.8366 135.231C17.6063 135.231 16.6089 136.43 16.6089 137.909C16.6089 139.387 17.6063 140.586 18.8366 140.586Z" fill="#3F3D56"/>
<path d="M18.8366 149.578C18.8366 149.578 18.5184 141.351 11.9943 142.308L18.8366 149.578Z" fill="#3F3D56"/>
</svg>
